<svg fill="blue" width="24" height="24" viewBox="0 0 24 24"  xmlns="http://www.w3.org/2000/svg">
<path d="M4 21C3.45 21 2.97933 20.8043 2.588 20.413C2.19667 20.0217 2.00067 19.5507 2 19V5C2 4.45 2.196 3.97933 2.588 3.588C2.98 3.19667 3.45067 3.00067 4 3H20C20.55 3 21.021 3.196 21.413 3.588C21.805 3.98 22.0007 4.45067 22 5V19C22 19.55 21.8043 20.021 21.413 20.413C21.0217 20.805 20.5507 21.0007 20 21H4ZM4 19H20V5H4V19ZM9 17C9.28333 17 9.521 16.904 9.713 16.712C9.905 16.52 10.0007 16.2827 10 16C9.99933 15.7173 9.90333 15.48 9.712 15.288C9.52067 15.096 9.28333 15 9 15H6C5.71667 15 5.47933 15.096 5.288 15.288C5.09667 15.48 5.00067 15.7173 5 16C4.99933 16.2827 5.09533 16.5203 5.288 16.713C5.48067 16.9057 5.718 17.0013 6 17H9ZM14.55 12.175L13.825 11.45C13.625 11.25 13.3917 11.1543 13.125 11.163C12.8583 11.1717 12.625 11.2757 12.425 11.475C12.2417 11.675 12.1457 11.9083 12.137 12.175C12.1283 12.4417 12.2243 12.675 12.425 12.875L13.85 14.3C14.05 14.5 14.2833 14.6 14.55 14.6C14.8167 14.6 15.05 14.5 15.25 14.3L18.8 10.75C19 10.55 19.1 10.3167 19.1 10.05C19.1 9.78333 19 9.55 18.8 9.35C18.6 9.15 18.3627 9.05 18.088 9.05C17.8133 9.05 17.5757 9.15 17.375 9.35L14.55 12.175ZM9 13C9.28333 13 9.521 12.904 9.713 12.712C9.905 12.52 10.0007 12.2827 10 12C9.99933 11.7173 9.90333 11.48 9.712 11.288C9.52067 11.096 9.28333 11 9 11H6C5.71667 11 5.47933 11.096 5.288 11.288C5.09667 11.48 5.00067 11.7173 5 12C4.99933 12.2827 5.09533 12.5203 5.288 12.713C5.48067 12.9057 5.718 13.0013 6 13H9ZM9 9C9.28333 9 9.521 8.904 9.713 8.712C9.905 8.52 10.0007 8.28267 10 8C9.99933 7.71733 9.90333 7.48 9.712 7.288C9.52067 7.096 9.28333 7 9 7H6C5.71667 7 5.47933 7.096 5.288 7.288C5.09667 7.48 5.00067 7.71733 5 8C4.99933 8.28267 5.09533 8.52033 5.288 8.713C5.48067 8.90567 5.718 9.00133 6 9H9Z" fill="white"/>
</svg>
