<svg width="24" height="24" viewBox="0 0 24 24" fill="none" xmlns="http://www.w3.org/2000/svg">
<g clip-path="url(#clip0_205_1337)">
<path fill-rule="evenodd" clip-rule="evenodd" d="M21.8397 6.05642C21.8833 5.79174 21.8551 5.5202 21.7581 5.2701C21.6611 5.02 21.4988 4.80048 21.2881 4.63443C21.0775 4.46838 20.8261 4.36186 20.5603 4.32598C20.2944 4.2901 20.0238 4.32616 19.7767 4.43042L2.67666 11.6304C1.48466 12.1324 1.42366 13.8564 2.67666 14.3764C3.91755 14.8934 5.17633 15.3664 6.45066 15.7944C7.61866 16.1804 8.89266 16.5374 9.91366 16.6384C10.1927 16.9724 10.5437 17.2944 10.9017 17.5884C11.4487 18.0384 12.1067 18.5014 12.7867 18.9454C14.1487 19.8354 15.6597 20.6864 16.6777 21.2404C17.8947 21.9004 19.3517 21.1404 19.5697 19.8134L21.8397 6.05642ZM4.59366 12.9934L19.7177 6.62542L17.5997 19.4654C16.6007 18.9224 15.1617 18.1094 13.8797 17.2714C13.2888 16.892 12.7184 16.4818 12.1707 16.0424C12.0243 15.9228 11.8822 15.7981 11.7447 15.6684L15.7057 11.7084C15.8933 11.5209 15.9988 11.2665 15.9989 11.0013C15.999 10.736 15.8937 10.4816 15.7062 10.2939C15.5187 10.1063 15.2643 10.0008 14.999 10.0007C14.7337 10.0006 14.4793 10.1059 14.2917 10.2934L9.95466 14.6304C9.22066 14.5364 8.19866 14.2644 7.07666 13.8944C6.24137 13.6161 5.41374 13.3153 4.59466 12.9924L4.59366 12.9934Z" fill="white"/>
</g>
<defs>
<clipPath id="clip0_205_1337">
<rect width="24" height="24" fill="white"/>
</clipPath>
</defs>
</svg>
