<svg width="52" height="52" viewBox="0 0 52 52" fill="none" xmlns="http://www.w3.org/2000/svg">
<path d="M48.88 26.541C48.88 24.851 48.7283 23.226 48.4467 21.666H26V30.896H38.8267C38.2633 33.8644 36.5733 36.3777 34.0383 38.0677V44.0693H41.7733C46.28 39.9093 48.88 33.7993 48.88 26.541Z" fill="#4285F4"/>
<path d="M26.0003 49.8341C32.4353 49.8341 37.8303 47.7108 41.7736 44.0708L34.0386 38.0691C31.9153 39.4991 29.207 40.3658 26.0003 40.3658C19.8036 40.3658 14.5386 36.1841 12.6536 30.5508H4.72363V36.7041C8.6453 44.4824 16.6836 49.8341 26.0003 49.8341Z" fill="#34A853"/>
<path d="M12.6537 30.5284C12.177 29.0984 11.8953 27.5817 11.8953 26C11.8953 24.4184 12.177 22.9017 12.6537 21.4717V15.3184H4.72366C3.09866 18.525 2.16699 22.1434 2.16699 26C2.16699 29.8567 3.09866 33.475 4.72366 36.6817L10.8987 31.8717L12.6537 30.5284Z" fill="#FBBC05"/>
<path d="M26.0003 11.656C29.5103 11.656 32.6303 12.8693 35.122 15.2093L41.947 8.38435C37.8086 4.52768 32.4353 2.16602 26.0003 2.16602C16.6836 2.16602 8.6453 7.51768 4.72363 15.3177L12.6536 21.471C14.5386 15.8377 19.8036 11.656 26.0003 11.656Z" fill="#EA4335"/>
</svg>
