<svg width="164" height="28" viewBox="0 0 164 28" fill="none" xmlns="http://www.w3.org/2000/svg">
<path d="M12.6567 2.70367C13.2082 1.59358 14.7918 1.59358 15.3433 2.70367L17.7823 7.61257C18.0007 8.05217 18.4204 8.35708 18.906 8.42896L24.3283 9.23166C25.5545 9.41318 26.0439 10.9192 25.1586 11.7868L21.2436 15.6234C20.893 15.967 20.7327 16.4603 20.8144 16.9443L21.7266 22.3493C21.9329 23.5716 20.6517 24.5024 19.553 23.9285L14.6945 21.3907C14.2594 21.1635 13.7406 21.1635 13.3055 21.3907L8.44696 23.9285C7.34825 24.5024 6.06713 23.5716 6.27341 22.3493L7.18559 16.9443C7.26728 16.4603 7.10697 15.967 6.75639 15.6234L2.84144 11.7868C1.95612 10.9192 2.44547 9.41318 3.67166 9.23166L9.094 8.42896C9.57957 8.35708 9.99925 8.05217 10.2177 7.61257L12.6567 2.70367Z" fill="#FBBC05"/>
<path d="M46.6567 2.70367C47.2082 1.59358 48.7918 1.59358 49.3433 2.70367L51.7823 7.61257C52.0007 8.05217 52.4204 8.35708 52.906 8.42896L58.3283 9.23166C59.5545 9.41318 60.0439 10.9192 59.1586 11.7868L55.2436 15.6234C54.893 15.967 54.7327 16.4603 54.8144 16.9443L55.7266 22.3493C55.9329 23.5716 54.6517 24.5024 53.553 23.9285L48.6945 21.3907C48.2594 21.1635 47.7406 21.1635 47.3055 21.3907L42.447 23.9285C41.3483 24.5024 40.0671 23.5716 40.2734 22.3493L41.1856 16.9443C41.2673 16.4603 41.107 15.967 40.7564 15.6234L36.8414 11.7868C35.9561 10.9192 36.4455 9.41318 37.6717 9.23166L43.094 8.42896C43.5796 8.35708 43.9993 8.05217 44.2177 7.61257L46.6567 2.70367Z" fill="#FBBC05"/>
<path d="M80.6567 2.70367C81.2082 1.59358 82.7918 1.59358 83.3433 2.70367L85.7823 7.61257C86.0007 8.05217 86.4204 8.35708 86.906 8.42896L92.3283 9.23166C93.5545 9.41318 94.0439 10.9192 93.1586 11.7868L89.2436 15.6234C88.893 15.967 88.7327 16.4603 88.8144 16.9443L89.7266 22.3493C89.9329 23.5716 88.6517 24.5024 87.553 23.9285L82.6945 21.3907C82.2594 21.1635 81.7406 21.1635 81.3055 21.3907L76.447 23.9285C75.3483 24.5024 74.0671 23.5716 74.2734 22.3493L75.1856 16.9443C75.2673 16.4603 75.107 15.967 74.7564 15.6234L70.8414 11.7868C69.9561 10.9192 70.4455 9.41318 71.6717 9.23166L77.094 8.42896C77.5796 8.35708 77.9993 8.05217 78.2177 7.61257L80.6567 2.70367Z" fill="#FBBC05"/>
<path d="M114.657 2.70367C115.208 1.59358 116.792 1.59358 117.343 2.70367L119.782 7.61257C120.001 8.05217 120.42 8.35708 120.906 8.42896L126.328 9.23166C127.555 9.41318 128.044 10.9192 127.159 11.7868L123.244 15.6234C122.893 15.967 122.733 16.4603 122.814 16.9443L123.727 22.3493C123.933 23.5716 122.652 24.5024 121.553 23.9285L116.694 21.3907C116.259 21.1635 115.741 21.1635 115.306 21.3907L110.447 23.9285C109.348 24.5024 108.067 23.5716 108.273 22.3493L109.186 16.9443C109.267 16.4603 109.107 15.967 108.756 15.6234L104.841 11.7868C103.956 10.9192 104.445 9.41318 105.672 9.23166L111.094 8.42896C111.58 8.35708 111.999 8.05217 112.218 7.61257L114.657 2.70367Z" fill="#FBBC05"/>
<path d="M148.657 2.70367C149.208 1.59358 150.792 1.59358 151.343 2.70367L153.782 7.61257C154.001 8.05217 154.42 8.35708 154.906 8.42896L160.328 9.23166C161.555 9.41318 162.044 10.9192 161.159 11.7868L157.244 15.6234C156.893 15.967 156.733 16.4603 156.814 16.9443L157.727 22.3493C157.933 23.5716 156.652 24.5024 155.553 23.9285L150.694 21.3907C150.259 21.1635 149.741 21.1635 149.306 21.3907L144.447 23.9285C143.348 24.5024 142.067 23.5716 142.273 22.3493L143.186 16.9443C143.267 16.4603 143.107 15.967 142.756 15.6234L138.841 11.7868C137.956 10.9192 138.445 9.41318 139.672 9.23166L145.094 8.42896C145.58 8.35708 145.999 8.05217 146.218 7.61257L148.657 2.70367Z" fill="#FBBC05"/>
</svg>
